<svg id="Layer_1" data-name="Layer 1" xmlns="http://www.w3.org/2000/svg" viewBox="0 0 246.32 165.26"><defs><style>.cls-1{fill:none;}.cls-2{fill:#ffcb1a;}.cls-3{fill:#3576a9;}</style></defs><circle class="cls-1" cx="96.55" cy="15.05" r="6.37"/><path class="cls-1" d="M124.47,56.46V7.56a1.17,1.17,0,0,0-.73-1.07,1,1,0,0,0-.41-.08V144.35l1.14,1.91V56.46Z"/><path class="cls-1" d="M75.21,63.09l48.12,81.26V6.41a1.4,1.4,0,0,0-1,.43Z"/><path class="cls-2" d="M214.27,0v106.2c0,19-11.46,30.35-28.86,30.35s-28.62-11.33-28.62-30.35V10.31A10.27,10.27,0,0,0,146.52,0H124.47V107.39c0,35,26.91,57.87,60.94,57.87s60.91-22.91,60.91-57.87V0ZM153.51,146.26a6.37,6.37,0,1,1,6.37-6.37A6.38,6.38,0,0,1,153.51,146.26Z"/><path class="cls-2" d="M123.74,6.49a1.17,1.17,0,0,1,.73,1.07V0h-1.14V6.41A1,1,0,0,1,123.74,6.49Z"/><polygon class="cls-3" points="123.33 162.46 124.47 162.46 124.47 146.26 123.33 144.35 123.33 162.46"/><polygon class="cls-3" points="134.06 162.46 124.47 146.26 124.47 162.46 134.06 162.46"/><path class="cls-3" d="M75.21,63.09,122.35,6.84a1.4,1.4,0,0,1,1-.43V0h0V0H93.91a12,12,0,0,0-2.56.32A10.94,10.94,0,0,0,85.4,4.14l-53,65.16V0H0V162.46H32.44V112.88L53.88,87.45l42.52,75h26.93V144.35ZM96.55,8.68a6.38,6.38,0,1,1-6.37,6.37A6.38,6.38,0,0,1,96.55,8.68Z"/></svg>