<?xml version="1.0" encoding="UTF-8"?><svg id="a" xmlns="http://www.w3.org/2000/svg" viewBox="0 0 246.32 165.26"><defs><style>.b{fill:#2d77aa;}.c{fill:#ffcc18;}.d{fill:#3576a9;}.e{fill:none;}</style></defs><circle class="e" cx="96.55" cy="15.05" r="6.37"/><path class="e" d="M124.47,56.46V7.56c0-.49-.31-.9-.73-1.07-.13-.06-.27-.09-.41-.09V144.35l1.13,1.91V56.46Z"/><path class="e" d="M75.21,63.09l48.13,81.26V6.41c-.36,0-.71,.17-.99,.43l-47.14,56.25Z"/><polygon class="d" points="123.33 162.46 124.47 162.46 124.47 146.26 123.33 144.35 123.33 162.46"/><g><polygon class="b" points="124.47 146.26 124.47 162.46 134.06 162.46 124.47 146.26"/><path class="b" d="M100.75,.03h-6.83c-.8,0-1.66,.12-2.57,.31-2.23,.55-4.42,1.84-5.95,3.8L32.44,69.3V0H0V162.46H32.44v-49.58l21.44-25.43,42.52,75.01h26.94v-18.11L75.21,63.09,122.35,6.84c.28-.26,.63-.44,.99-.43V.03h-22.59Z"/></g><path class="c" d="M214.27,.03V106.23c0,19.02-11.46,30.35-28.86,30.35s-28.62-11.34-28.62-30.35V10.31c0-5.66-4.58-10.27-10.27-10.27h-23.18V6.41c.13,0,.27,.03,.41,.09,.41,.17,.73,.58,.73,1.07V107.39c0,34.96,26.92,57.87,60.94,57.87s60.91-22.91,60.91-57.87V.03h-32.05Z"/></svg>